<svg width="64" height="64" viewBox="0 0 64 64" fill="none" xmlns="http://www.w3.org/2000/svg">
  <!-- "a" letterform with dot (orange) centered and scaled -->
  <g transform="translate(12, 8) scale(0.68)">
    <path d="M0 25.68C0 21.069 1.194 16.874 3.583 13.096C5.972 9.319 9.139 6.291 13.083 4.013C17.083 1.791 21.5 0.68 26.333 0.68C31.166 0.68 35.583 1.791 39.583 4.013C43.583 6.291 46.75 9.319 49.083 13.096C51.472 16.874 52.666 21.069 52.666 25.68C52.666 28.902 52.083 31.846 50.916 34.513C49.805 37.18 48.25 39.457 46.25 41.346H51.333V53.846H1.333V41.346H6.416C4.416 39.457 2.833 37.18 1.666 34.513C0.555 31.846 0 28.902 0 25.68ZM12.75 27.43C12.75 29.874 13.361 32.096 14.583 34.096C15.805 36.096 17.444 37.68 19.5 38.846C21.555 40.069 23.833 40.68 26.333 40.68C28.833 40.68 31.111 40.069 33.166 38.846C35.222 37.68 36.861 36.096 38.083 34.096C39.305 32.096 39.916 29.874 39.916 27.43C39.916 24.985 39.305 22.763 38.083 20.763C36.861 18.763 35.222 17.152 33.166 15.93C31.111 14.763 28.833 14.18 26.333 14.18C23.833 14.18 21.555 14.763 19.5 15.93C17.444 17.152 15.805 18.763 14.583 20.763C13.361 22.763 12.75 24.985 12.75 27.43Z" fill="#FF6B00"/>
    <line x1="1.333" y1="66" x2="51.333" y2="66" stroke="#FF6B00" stroke-width="14"/>
    <circle cx="59.083" cy="65.75" r="7.75" fill="#FF6B00"/>
  </g>
</svg>
