<svg width="566" height="357" viewBox="0 0 566 357" fill="none" xmlns="http://www.w3.org/2000/svg">
<path d="M102.493 205.667C98.9935 205.667 95.6879 204.833 92.5768 203.167C89.4657 201.444 86.9379 198.972 84.9935 195.75C83.1046 192.472 82.1602 188.528 82.1602 183.917V154H96.6602V182C96.6602 184.778 97.4935 187.25 99.1602 189.417C100.882 191.583 103.271 192.667 106.327 192.667C108.827 192.667 111.049 191.778 112.993 190C114.993 188.167 115.993 185.556 115.993 182.167V154H130.493V204H117.327V198.75C115.549 200.972 113.355 202.694 110.743 203.917C108.188 205.083 105.438 205.667 102.493 205.667ZM141.52 229V154H154.02V158.917C155.964 156.972 158.242 155.444 160.853 154.333C163.52 153.222 166.436 152.667 169.603 152.667C174.27 152.667 178.492 153.861 182.27 156.25C186.047 158.583 189.047 161.75 191.27 165.75C193.547 169.75 194.686 174.167 194.686 179C194.686 183.833 193.547 188.25 191.27 192.25C189.047 196.194 186.047 199.361 182.27 201.75C178.492 204.139 174.27 205.333 169.603 205.333C166.936 205.333 164.464 204.917 162.186 204.083C159.908 203.306 157.853 202.222 156.02 200.833V229H141.52ZM167.936 192.583C170.381 192.583 172.603 191.972 174.603 190.75C176.603 189.528 178.186 187.889 179.353 185.833C180.575 183.778 181.186 181.5 181.186 179C181.186 176.5 180.575 174.222 179.353 172.167C178.186 170.111 176.603 168.472 174.603 167.25C172.603 166.028 170.381 165.417 167.936 165.417C165.492 165.417 163.27 166.028 161.27 167.25C159.27 168.472 157.658 170.111 156.436 172.167C155.27 174.222 154.686 176.5 154.686 179C154.686 181.5 155.27 183.778 156.436 185.833C157.658 187.889 159.27 189.528 161.27 190.75C163.27 191.972 165.492 192.583 167.936 192.583ZM219.577 205.667C216.188 205.667 212.743 205.111 209.243 204C205.799 202.889 203.105 201.389 201.16 199.5L204.743 185.833C206.355 188.056 208.577 190 211.41 191.667C214.299 193.333 217.271 194.167 220.327 194.167C222.382 194.167 223.855 193.778 224.743 193C225.688 192.222 226.16 191.278 226.16 190.167C226.16 188.889 225.688 187.972 224.743 187.417C223.799 186.806 222.827 186.306 221.827 185.917L214.827 183.25C213.271 182.639 211.493 181.806 209.493 180.75C207.493 179.694 205.743 178.194 204.243 176.25C202.799 174.306 202.077 171.75 202.077 168.583C202.077 165.694 202.799 163.028 204.243 160.583C205.688 158.139 207.771 156.167 210.493 154.667C213.271 153.111 216.605 152.333 220.493 152.333C224.105 152.333 227.466 152.944 230.577 154.167C233.743 155.389 236.049 156.75 237.493 158.25L234.16 171.417C232.271 168.972 230.021 167.111 227.41 165.833C224.855 164.5 222.41 163.833 220.077 163.833C218.299 163.833 216.993 164.194 216.16 164.917C215.327 165.639 214.91 166.472 214.91 167.417C214.91 168.139 215.188 168.861 215.743 169.583C216.355 170.25 217.355 170.861 218.743 171.417L225.243 173.833C227.132 174.5 229.132 175.389 231.243 176.5C233.41 177.611 235.243 179.167 236.743 181.167C238.243 183.111 238.993 185.806 238.993 189.25C238.993 194.083 237.188 198.028 233.577 201.083C230.021 204.139 225.355 205.667 219.577 205.667ZM253.173 204V165.5H243.84V154H253.423V137.333H267.423V154H277.34V165.5H267.673V204H253.173Z" fill="#1E4908"/>
<path d="M352.544 204V165.5H343.211V154H352.794V137.333H366.794V154H376.711V165.5H367.044V204H352.544ZM407.667 205.667C402.056 205.667 397.111 204.5 392.833 202.167C388.556 199.833 385.222 196.639 382.833 192.583C380.444 188.472 379.25 183.778 379.25 178.5C379.25 173.444 380.417 168.972 382.75 165.083C385.083 161.139 388.222 158.028 392.167 155.75C396.167 153.472 400.583 152.333 405.417 152.333C410.361 152.333 414.778 153.472 418.667 155.75C422.556 157.972 425.611 161.028 427.833 164.917C430.111 168.806 431.25 173.222 431.25 178.167V183.25H400.75C399.361 183.25 398.028 183.167 396.75 183C395.472 182.833 394.194 182.639 392.917 182.417C393.583 185.75 395.222 188.472 397.833 190.583C400.5 192.639 403.889 193.667 408 193.667C411.167 193.667 414 193.028 416.5 191.75C419.056 190.472 421.139 188.889 422.75 187L425.917 200C423.417 201.889 420.583 203.306 417.417 204.25C414.306 205.194 411.056 205.667 407.667 205.667ZM392.583 173.667C395.361 173.056 398.083 172.75 400.75 172.75H409.583C411.139 172.75 412.611 172.806 414 172.917C415.389 173.028 416.694 173.222 417.917 173.5C417.083 170.5 415.556 168.139 413.333 166.417C411.167 164.694 408.472 163.833 405.25 163.833C402.194 163.833 399.528 164.722 397.25 166.5C395.028 168.222 393.472 170.611 392.583 173.667Z" fill="#1E4908"/>
<path d="M283.667 175.68C283.667 171.069 284.861 166.874 287.25 163.096C289.639 159.319 292.806 156.291 296.75 154.013C300.75 151.791 305.167 150.68 310 150.68C314.833 150.68 319.25 151.791 323.25 154.013C327.25 156.291 330.417 159.319 332.75 163.096C335.139 166.874 336.333 171.069 336.333 175.68C336.333 178.902 335.75 181.846 334.583 184.513C333.472 187.18 331.917 189.457 329.917 191.346H335V203.846H285V191.346H290.083C288.083 189.457 286.5 187.18 285.333 184.513C284.222 181.846 283.667 178.902 283.667 175.68ZM296.417 177.43C296.417 179.874 297.028 182.096 298.25 184.096C299.472 186.096 301.111 187.68 303.167 188.846C305.222 190.069 307.5 190.68 310 190.68C312.5 190.68 314.778 190.069 316.833 188.846C318.889 187.68 320.528 186.096 321.75 184.096C322.972 182.096 323.583 179.874 323.583 177.43C323.583 174.985 322.972 172.763 321.75 170.763C320.528 168.763 318.889 167.152 316.833 165.93C314.778 164.763 312.5 164.18 310 164.18C307.5 164.18 305.222 164.763 303.167 165.93C301.111 167.152 299.472 168.763 298.25 170.763C297.028 172.763 296.417 174.985 296.417 177.43Z" fill="#FF6B00"/>
<line x1="285" y1="216" x2="335" y2="216" stroke="#FF6B00" stroke-width="14"/>
<circle cx="359.75" cy="215.75" r="7.75" fill="#FF6B00"/>
</svg>
