<svg xmlns="http://www.w3.org/2000/svg" width="458.221" height="420" viewBox="0 0 458.221 420" xmlns:xlink="http://www.w3.org/1999/xlink" role="img"><g transform="translate(-764.119 -179.451)"><g transform="translate(764.119 179.451)"><g transform="translate(0)"><g transform="translate(91.626 101.402)"><path d="M271.16,145.025H130.009L59.433,267.266l70.576,122.241H271.16l70.576-122.241Z" transform="translate(-59.433 -145.025)" fill="#2d5745"></path><path d="M305.1,586.938H422.623l58.761-101.776L422.623,383.385H305.1L246.341,485.161Z" transform="translate(-222.711 -362.92)" fill="#fff"></path><rect width="1.529" height="63.116" transform="translate(95.771 20.313)" fill="#3f3d56"></rect><circle cx="4.353" cy="4.353" r="4.353" transform="translate(92.183 82.704)" fill="#2d5745"></circle><rect width="1.529" height="63.116" transform="translate(128.417 20.313)" fill="#3f3d56"></rect><circle cx="4.353" cy="4.353" r="4.353" transform="translate(124.829 82.704)" fill="#3f3d56"></circle><rect width="1.529" height="63.116" transform="translate(185.728 20.313)" fill="#3f3d56"></rect><circle cx="4.353" cy="4.353" r="4.353" transform="translate(182.14 82.704)" fill="#3f3d56"></circle><circle cx="4.353" cy="4.353" r="4.353" transform="translate(158.2 145.093)" fill="#3f3d56"></circle><circle cx="4.353" cy="4.353" r="4.353" transform="translate(69.693 105.193)" fill="#3f3d56"></circle><path d="M262.538,311.859h-1.529V235.805H228.4v-1.529h34.136Z" transform="translate(-99.221 -166.041)" fill="#3f3d56"></path><circle cx="4.353" cy="4.353" r="4.353" transform="translate(102.34 172.661)" fill="#2d5745"></circle><path d="M189.472,347.918h-1.529V271.863H155.336v-1.529h34.136Z" transform="translate(-82.016 -174.532)" fill="#3f3d56"></path><circle cx="4.353" cy="4.353" r="4.353" transform="translate(203.179 138.563)" fill="#2d5745"></circle><path d="M324.945,303.319h-1.529V227.265h-21v-1.529h22.528Z" transform="translate(-116.649 -164.03)" fill="#3f3d56"></path><path d="M156.814,270.969h-1.529V233.155h23.254v1.529H156.814Z" transform="translate(-82.004 -165.777)" fill="#3f3d56"></path><circle cx="4.353" cy="4.353" r="4.353" transform="translate(125.191 189.709)" fill="#3f3d56"></circle><path d="M222.714,381.517h-1.529V345.232H199.46V343.7h23.254Z" transform="translate(-92.406 -191.808)" fill="#3f3d56"></path><circle cx="4.353" cy="4.353" r="4.353" transform="translate(180.689 157.426)" fill="#3f3d56"></circle><path d="M302,339.291h-1.529V301.477h23.254v1.529H302Z" transform="translate(-116.19 -181.865)" fill="#3f3d56"></path></g><g transform="translate(0 0)"><path d="M360.564,159.982a1.784,1.784,0,0,0-1.783,1.783v57.041a1.783,1.783,0,1,0,3.565,0V161.765A1.784,1.784,0,0,0,360.564,159.982Z" transform="translate(-280.013 -156.379)" fill="#3f3d56"></path><g transform="translate(10.355)"><path d="M364.3,244.644H289.357a7.343,7.343,0,0,1-7.335-7.335V163.275a7.343,7.343,0,0,1,7.335-7.335H364.3a7.343,7.343,0,0,1,7.335,7.335v74.034A7.343,7.343,0,0,1,364.3,244.644Z" transform="translate(-282.022 -155.94)" fill="#090814"></path><path d="M303.581,158.392A19.107,19.107,0,0,0,284.474,177.5v58.506a6.72,6.72,0,0,0,6.72,6.72h45.829a32.7,32.7,0,0,0,32.7-32.7V165.112a6.72,6.72,0,0,0-6.72-6.72Z" transform="translate(-282.289 -156.207)" fill="#fff"></path><g transform="translate(6.817 20.911)"><path d="M349.732,182.191h-40.3a1.395,1.395,0,0,1,0-2.789h40.3a1.395,1.395,0,1,1,0,2.789Z" transform="translate(-291.668 -179.402)" fill="#d6d6e3"></path><path d="M349.732,215.555h-40.3a1.395,1.395,0,0,1,0-2.789h40.3a1.395,1.395,0,1,1,0,2.789Z" transform="translate(-291.668 -183.03)" fill="#d6d6e3"></path><path d="M364.1,198.884H291.065a1.395,1.395,0,1,1,0-2.789H364.1a1.395,1.395,0,0,1,0,2.789Z" transform="translate(-289.671 -181.217)" fill="#d6d6e3"></path><path d="M370.63,229.121H344.245a1.395,1.395,0,1,1,0-2.789H370.63a1.395,1.395,0,0,1,0,2.789Z" transform="translate(-295.453 -184.505)" fill="#d6d6e3"></path></g></g><circle cx="12.478" cy="12.478" r="12.478" transform="translate(0 72.219)" fill="#2d5745"></circle></g><g transform="translate(26.005 269.54)"><g transform="translate(0 0)"><path d="M145.145,202.271H101.132a4.313,4.313,0,0,1-4.307-4.307V154.487a4.313,4.313,0,0,1,4.307-4.307h44.013a4.313,4.313,0,0,1,4.307,4.307v43.476a4.313,4.313,0,0,1-4.307,4.307Z" transform="translate(-96.825 -150.18)" fill="#090814"></path><path d="M109.485,151.619a11.221,11.221,0,0,0-11.221,11.224V197.2a3.947,3.947,0,0,0,3.946,3.947h26.911a19.2,19.2,0,0,0,19.2-19.2V155.569a3.946,3.946,0,0,0-3.947-3.946H109.485Z" transform="translate(-96.982 -150.337)" fill="#fff"></path><g transform="translate(4.005 12.279)"><path d="M136.587,165.6H112.919a.819.819,0,0,1,0-1.638h23.668a.819.819,0,0,1,0,1.638Z" transform="translate(-102.491 -163.958)" fill="#d6d6e3"></path><path d="M136.587,185.188H112.919a.819.819,0,1,1,0-1.638h23.668a.819.819,0,1,1,0,1.638Z" transform="translate(-102.491 -166.088)" fill="#d6d6e3"></path><path d="M145.027,175.4h-42.89a.819.819,0,1,1,0-1.638h42.89a.819.819,0,1,1,0,1.638Z" transform="translate(-101.318 -165.023)" fill="#d6d6e3"></path><path d="M148.86,193.155H133.366a.819.819,0,0,1,0-1.638H148.86a.819.819,0,0,1,0,1.638Z" transform="translate(-104.714 -166.954)" fill="#d6d6e3"></path></g></g><circle cx="8.913" cy="8.913" r="8.913" transform="translate(42.185 43.628)" fill="#2d5745"></circle></g><g transform="translate(379.963 97.176)"><g transform="translate(0 10.694)"><path d="M189.74,412.377H130.226a5.831,5.831,0,0,1-5.825-5.825V347.765a5.831,5.831,0,0,1,5.825-5.825H189.74a5.831,5.831,0,0,1,5.825,5.825v58.788a5.831,5.831,0,0,1-5.825,5.825h0Z" transform="translate(-124.401 -341.94)" fill="#090814"></path><path d="M141.521,343.887a15.173,15.173,0,0,0-15.173,15.173v46.458a5.336,5.336,0,0,0,5.336,5.336h36.391a25.965,25.965,0,0,0,25.965-25.965V349.224a5.336,5.336,0,0,0-5.336-5.336H141.521Z" transform="translate(-124.613 -342.151)" fill="#fff"></path><g transform="translate(5.413 16.602)"><path d="M178.168,362.784h-32a1.109,1.109,0,1,1,0-2.217h32a1.109,1.109,0,1,1,0,2.217Z" transform="translate(-132.06 -360.567)" fill="#d6d6e3"></path><path d="M178.168,389.277h-32a1.109,1.109,0,0,1,0-2.217h32a1.109,1.109,0,1,1,0,2.217Z" transform="translate(-132.06 -363.447)" fill="#d6d6e3"></path><path d="M189.579,376.04h-58a1.109,1.109,0,1,1,0-2.217h58a1.109,1.109,0,1,1,0,2.217Z" transform="translate(-130.474 -362.008)" fill="#d6d6e3"></path><path d="M194.764,400.049H173.816a1.109,1.109,0,1,1,0-2.217h20.948a1.109,1.109,0,1,1,0,2.217Z" transform="translate(-135.066 -364.619)" fill="#d6d6e3"></path></g></g><circle cx="10.695" cy="10.695" r="10.695" transform="translate(56.868 0)" fill="#2d5745"></circle></g><g transform="translate(373.929 184.241)"><ellipse cx="5.348" cy="5.348" rx="5.348" ry="5.348" transform="translate(38.16 0)" fill="#090814"></ellipse><path d="M277.469,340.443h44.342V319.97h-1.783v18.69H277.465Z" transform="translate(-277.465 -314.623)" fill="#090814"></path></g><g transform="translate(89.912 94.211)"><circle cx="5.348" cy="5.348" r="5.348" transform="translate(0 0)" fill="#090814"></circle><path d="M156.752,323.958H112.409V303.486h1.783v18.69h42.563Z" transform="translate(-108.427 -298.138)" fill="#090814"></path></g><g transform="translate(51.117 238.096)"><ellipse cx="5.348" cy="5.348" rx="5.348" ry="5.348" transform="translate(0 15.123)" fill="#090814"></ellipse><path d="M321.807,319.97H277.465v20.472h1.783V321.753h42.563Z" transform="translate(-272.955 -319.97)" fill="#090814"></path></g></g></g></g></svg>
